<svg version="1.0" xmlns="http://www.w3.org/2000/svg"
 width="512.000000pt" height="512.000000pt" viewBox="0 0 512.000000 512.000000"
 preserveAspectRatio="xMidYMid meet" class="image-html-logo" >

<g transform="translate(0.000000,512.000000) scale(0.100000,-0.100000)"
fill="#ff5722" stroke="none">
<path d="M326 5098 c2 -13 94 -1049 205 -2303 111 -1254 202 -2280 203 -2281
0 0 409 -114 908 -253 567 -159 917 -252 935 -249 21 3 1802 498 1809 502 1 1
92 1027 203 2281 111 1254 203 2290 205 2303 l3 22 -2237 0 -2237 0 3 -22z
m3640 -970 c-6 -51 -46 -499 -46 -512 0 -3 -484 -6 -1075 -6 l-1075 0 5 -37
c6 -46 45 -487 45 -514 0 -19 22 -19 1026 -19 l1025 0 -5 -42 c-3 -24 -38
-407 -76 -853 -39 -445 -73 -819 -75 -830 -4 -18 -75 -41 -580 -182 l-576
-160 -577 161 -576 161 -38 415 c-20 228 -37 434 -37 458 l-1 42 283 0 284 0
17 -207 c10 -115 21 -221 25 -237 7 -29 10 -30 311 -113 l305 -83 305 81 c168
45 309 86 314 90 4 4 23 167 40 363 l32 356 -968 0 c-766 0 -970 3 -973 13 -3
6 -36 370 -75 807 -38 437 -72 819 -76 848 l-5 52 1411 0 1411 0 -5 -52z"/>
</g>
</svg>
